0
SECTION
2
HEADER
9
$INSUNITS
70
4
9
$ACADVER
1
AC1014
9
$HANDSEED
5
FFFF
0
ENDSEC
0
SECTION
2
TABLES
0
TABLE
2
VPORT
5
8
100
AcDbSymbolTable
0
ENDTAB
0
TABLE
2
LTYPE
5
5
100
AcDbSymbolTable
0
LTYPE
5
14
100
AcDbSymbolTableRecord
100
AcDbLinetypeTableRecord
2
BYBLOCK
70
0
0
LTYPE
5
15
100
AcDbSymbolTableRecord
100
AcDbLinetypeTableRecord
2
BYLAYER
70
0
0
ENDTAB
0
TABLE
2
LAYER
5
2
100
AcDbSymbolTable
70
2
0
LAYER
5
50
100
AcDbSymbolTableRecord
100
AcDbLayerTableRecord
2
0
70
0
6
CONTINUOUS
0
ENDTAB
0
TABLE
2
STYLE
5
3
100
AcDbSymbolTable
70
1
0
STYLE
5
11
100
AcDbSymbolTableRecord
100
AcDbTextStyleTableRecord
2
STANDARD
70
0
0
ENDTAB
0
TABLE
2
VIEW
5
6
100
AcDbSymbolTable
70
0
0
ENDTAB
0
TABLE
2
UCS
5
7
100
AcDbSymbolTable
70
0
0
ENDTAB
0
TABLE
2
APPID
5
9
100
AcDbSymbolTable
70
2
0
APPID
5
12
100
AcDbSymbolTableRecord
100
AcDbRegAppTableRecord
2
ACAD
70
0
0
ENDTAB
0
TABLE
2
DIMSTYLE
5
A
100
AcDbSymbolTable
70
1
0
ENDTAB
0
TABLE
2
BLOCK_RECORD
5
1
100
AcDbSymbolTable
70
1
0
BLOCK_RECORD
5
1F
100
AcDbSymbolTableRecord
100
AcDbBlockTableRecord
2
*MODEL_SPACE
0
BLOCK_RECORD
5
1B
100
AcDbSymbolTableRecord
100
AcDbBlockTableRecord
2
*PAPER_SPACE
0
ENDTAB
0
ENDSEC
0
SECTION
2
BLOCKS
0
BLOCK
5
20
100
AcDbEntity
100
AcDbBlockBegin
2
*MODEL_SPACE
0
ENDBLK
5
21
100
AcDbEntity
100
AcDbBlockEnd
0
BLOCK
5
1C
100
AcDbEntity
100
AcDbBlockBegin
2
*PAPER_SPACE
0
ENDBLK
5
1D
100
AcDbEntity
100
AcDbBlockEnd
0
ENDSEC
0
SECTION
2
ENTITIES
0
LWPOLYLINE
5
100
100
AcDbEntity
8
OUTER_PROFILES
100
AcDbPolyline
90
32
70
1
43
0.0
10
184.53354643290197
20
124.12132034355977
10
195.77618712002135
20
112.8786796564404
42
0.19891236737965803
10
197.89750746358095
20
112
10
277.30973355292343
20
112.00000000000003
42
-0.41421356237309503
10
279.30973355292343
20
110
10
279.30973355292338
20
85.999999999999943
42
-0.41421356237309503
10
277.30973355292343
20
83.999999999999943
10
271.30973355292338
20
84.000000000000028
42
0.41421356237309503
10
269.30973355292343
20
82.000000000000028
10
269.30973355292343
20
18.000000000000043
42
0.41421356237309503
10
271.30973355292338
20
16.000000000000043
10
276.18473355292326
20
16.000000000000085
42
-0.4142135623730947
10
278.18473355292326
20
14.000000000000059
10
278.18473355292326
20
-2.9999999999999716
42
-0.41421356237309503
10
276.18473355292326
20
-4.9999999999999716
10
246.3097335529234
20
-4.9999999999999289
42
-0.41421356237309437
10
244.3097335529234
20
-2.999999999999976
10
244.3097335529234
20
-1.9999999999999563
42
0.41421356237309492
10
242.30973355292343
20
4.3021142204224816e-14
10
0
20
2.8588242884097781e-14
42
-0.41421356237309509
10
-1.9999999999999998
20
2.0000000000000289
10
-1.9999999999999929
20
13.000000000000043
42
-0.41421356237309503
10
-1.2246467991473505e-16
20
15.000000000000043
10
13.000000000000007
20
15
10
13.000000000000007
20
85
10
0
20
85.000000000000028
42
-0.41421356237309503
10
-1.9999999999999998
20
87.000000000000028
10
-1.9999999999999929
20
102.17157287525382
42
-0.19891236737965101
10
-1.4142135623731331
20
103.58578643762687
10
19.414213562373131
20
124.41421356237311
42
-0.19891236737965132
10
20.828427124746188
20
124.99999999999997
10
182.41222608934231
20
125.00000000000003
42
-0.1989123673796537
0
CIRCLE
5
101
100
AcDbEntity
8
INTERIOR_PROFILES
100
AcDbCircle
10
-36.500000000000021
20
32.999999999999972
30
0
40
2.0500000000000007
210
0
220
0
230
-1
0
CIRCLE
5
102
100
AcDbEntity
8
INTERIOR_PROFILES
100
AcDbCircle
10
-254.30973355292178
20
10.000000000000071
30
0
40
1.5500000000000114
210
0
220
0
230
-1
0
LWPOLYLINE
5
103
100
AcDbEntity
8
INTERIOR_PROFILES
100
AcDbPolyline
90
4
70
1
43
0.0
10
150.1548667764618
20
98.908363502117282
10
150.15486677646138
20
36.786159311520095
42
0.26311756760599797
10
151.12376176344236
20
35.072443333848454
42
1.7687324227070746
10
151.12376176344281
20
100.62207947978892
42
0.26311756760599792
0
CIRCLE
5
104
100
AcDbEntity
8
INTERIOR_PROFILES
100
AcDbCircle
10
-240.80973355292176
20
32.999999999999972
30
0
40
2.0500000000000185
210
0
220
0
230
-1
0
CIRCLE
5
105
100
AcDbEntity
8
INTERIOR_PROFILES
100
AcDbCircle
10
-239.30973355292178
20
10.000000000000071
30
0
40
1.5500000000000114
210
0
220
0
230
-1
0
CIRCLE
5
106
100
AcDbEntity
8
INTERIOR_PROFILES
100
AcDbCircle
10
-163.65486677646169
20
112.00000000000003
30
0
40
1.5500000000000114
210
0
220
0
230
-1
0
CIRCLE
5
107
100
AcDbEntity
8
INTERIOR_PROFILES
100
AcDbCircle
10
-78.654866776461674
20
112.00000000000003
30
0
40
1.5500000000000114
210
0
220
0
230
-1
0
CIRCLE
5
108
100
AcDbEntity
8
INTERIOR_PROFILES
100
AcDbCircle
10
-23.000000000005425
20
10.000000000000071
30
0
40
1.5500000000000025
210
0
220
0
230
-1
0
CIRCLE
5
109
100
AcDbEntity
8
INTERIOR_PROFILES
100
AcDbCircle
10
-38.000000000005429
20
10.000000000000071
30
0
40
1.5500000000000025
210
0
220
0
230
-1
0
CIRCLE
5
110
100
AcDbEntity
8
INTERIOR_PROFILES
100
AcDbCircle
10
-91.654866776461645
20
112.00000000000003
30
0
40
1.5500000000000114
210
0
220
0
230
-1
0
CIRCLE
5
111
100
AcDbEntity
8
INTERIOR_PROFILES
100
AcDbCircle
10
-150.65486677646169
20
112.00000000000003
30
0
40
1.5500000000000114
210
0
220
0
230
-1
0
CIRCLE
5
112
100
AcDbEntity
8
INTERIOR_PROFILES
100
AcDbCircle
10
-68.654866776461674
20
15
30
0
40
2.0000000000000284
210
0
220
0
230
-1
0
CIRCLE
5
113
100
AcDbEntity
8
INTERIOR_PROFILES
100
AcDbCircle
10
-143.65486677646169
20
15
30
0
40
2.0000000000000284
210
0
220
0
230
-1
0
LWPOLYLINE
5
114
100
AcDbEntity
8
INTERIOR_PROFILES
100
AcDbPolyline
90
8
70
1
43
0.0
10
78.654866776461702
20
27.000000000000028
42
0.41421356237309503
10
80.654866776461702
20
25.000000000000028
10
121.65486677646165
20
25
42
0.4142135623730957
10
123.65486677646163
20
27.000000000000032
10
123.65486677646167
20
77.999999999999972
42
0.41421356237309243
10
121.65486677646166
20
79.999999999999972
10
80.654866776461702
20
79.999999999999972
42
0.41421356237309503
10
78.654866776461702
20
77.999999999999972
0
CIRCLE
5
115
100
AcDbEntity
8
INTERIOR_PROFILES
100
AcDbCircle
10
-36.500000000000021
20
108.49999999999994
30
0
40
2.0499999999999918
210
0
220
0
230
-1
0
CIRCLE
5
116
100
AcDbEntity
8
INTERIOR_PROFILES
100
AcDbCircle
10
-206.59364513743094
20
103.59726140681857
30
0
40
2.0499999999999829
210
0
220
0
230
-1
0
CIRCLE
5
117
100
AcDbEntity
8
INTERIOR_PROFILES
100
AcDbCircle
10
-206.59364513743094
20
32.097261406818518
30
0
40
2.0499999999999829
210
0
220
0
230
-1
0
CIRCLE
5
118
100
AcDbEntity
8
INTERIOR_PROFILES
100
AcDbCircle
10
-240.80973355292176
20
16.500000000000057
30
0
40
2.0500000000000185
210
0
220
0
230
-1
0
CIRCLE
5
119
100
AcDbEntity
8
INTERIOR_PROFILES
100
AcDbCircle
10
-240.80973355292176
20
108.50000000000009
30
0
40
2.0499999999999829
210
0
220
0
230
-1
0
CIRCLE
5
120
100
AcDbEntity
8
INTERIOR_PROFILES
100
AcDbCircle
10
-240.80973355292176
20
92.000000000000028
30
0
40
2.0500000000000185
210
0
220
0
230
-1
0
CIRCLE
5
121
100
AcDbEntity
8
INTERIOR_PROFILES
100
AcDbCircle
10
-36.500000000000021
20
16.499999999999986
30
0
40
2.0500000000000007
210
0
220
0
230
-1
0
CIRCLE
5
122
100
AcDbEntity
8
INTERIOR_PROFILES
100
AcDbCircle
10
-36.500000000000021
20
92.000000000000028
30
0
40
2.0500000000000052
210
0
220
0
230
-1
0
CIRCLE
5
123
100
AcDbEntity
8
INTERIOR_PROFILES
100
AcDbCircle
10
-275.18473355292326
20
96.89100949735689
30
0
40
1.6000000000000014
210
0
220
0
230
-1
0
CIRCLE
5
124
100
AcDbEntity
8
INTERIOR_PROFILES
100
AcDbCircle
10
-135.09364513743088
20
32.097261406818518
30
0
40
2.0499999999999829
210
0
220
0
230
-1
0
CIRCLE
5
125
100
AcDbEntity
8
INTERIOR_PROFILES
100
AcDbCircle
10
-275.18473355292326
20
90.891009497356947
30
0
40
1.6000000000000014
210
0
220
0
230
-1
0
CIRCLE
5
126
100
AcDbEntity
8
INTERIOR_PROFILES
100
AcDbCircle
10
-143.65486677646169
20
90
30
0
40
2.0000000000000284
210
0
220
0
230
-1
0
CIRCLE
5
127
100
AcDbEntity
8
INTERIOR_PROFILES
100
AcDbCircle
10
-275.18473355292326
20
6.890237620658084
30
0
40
1.6000000000000003
210
0
220
0
230
-1
0
CIRCLE
5
128
100
AcDbEntity
8
INTERIOR_PROFILES
100
AcDbCircle
10
-135.09364513743088
20
103.59726140681857
30
0
40
2.0499999999999829
210
0
220
0
230
-1
0
CIRCLE
5
129
100
AcDbEntity
8
INTERIOR_PROFILES
100
AcDbCircle
10
-275.18473355292326
20
-1.1037623793419016
30
0
40
1.6000000000000003
210
0
220
0
230
-1
0
CIRCLE
5
130
100
AcDbEntity
8
INTERIOR_PROFILES
100
AcDbCircle
10
-68.654866776461674
20
90
30
0
40
1.9999999999999574
210
0
220
0
230
-1
0
CIRCLE
5
131
100
AcDbEntity
8
INTERIOR_PROFILES
100
AcDbCircle
10
-2.1250000000000213
20
91.391004754357255
30
0
40
1.6000000000000003
210
0
220
0
230
-1
0
CIRCLE
5
132
100
AcDbEntity
8
INTERIOR_PROFILES
100
AcDbCircle
10
-2.1250000000000213
20
6.3910092589384959
30
0
40
2.1000000000000001
210
0
220
0
230
-1
0
CIRCLE
5
133
100
AcDbEntity
8
INTERIOR_PROFILES
100
AcDbCircle
10
-2.1250000000000213
20
97.39100475435734
30
0
40
1.6000000000000003
210
0
220
0
230
-1
0
LINE
5
134
100
AcDbEntity
8
BEND
100
AcDbLine
10
221.48230016469262
20
7.1054273576010019e-14
30
-1.8399932331720654e-12
11
221.48230016469262
21
112.00000000000003
31
-1.770235863211888e-12
0
LINE
5
135
100
AcDbEntity
8
BEND
100
AcDbLine
10
55.827433388230823
20
125
30
-1.8685393009512814e-14
11
55.827433388230823
21
0
31
-1.8902388879163643e-14
0
LINE
5
136
100
AcDbEntity
8
BEND_EXTENT
100
AcDbLine
10
224.3097335529234
20
112.00000000000003
30
-1.7857396550675645e-12
11
224.3097335529234
21
7.1054273576010019e-14
31
-1.8567939286435743e-12
0
LINE
5
137
100
AcDbEntity
8
BEND_EXTENT
100
AcDbLine
10
58.654866776461674
20
125
30
-7.84502891576911e-14
11
58.654866776461674
21
0
31
-5.1804936566687343e-14
0
LINE
5
138
100
AcDbEntity
8
BEND_EXTENT
100
AcDbLine
10
218.6548667764616
20
7.1054273576010019e-14
30
-1.7437064868023669e-12
11
218.65486677646169
21
112.00000000000003
31
-1.7437064868023677e-12
0
LINE
5
139
100
AcDbEntity
8
BEND_EXTENT
100
AcDbLine
10
53.000000000000043
20
0
30
7.9918000925105674e-15
11
53.000000000000043
21
125
31
-6.3062473483499451e-14
0
ENDSEC
0
SECTION
2
OBJECTS
0
DICTIONARY
5
C
100
AcDbDictionary
3
ACAD_GROUP
350
D
3
ACAD_MLINESTYLE
350
17
0
DICTIONARY
5
D
100
AcDbDictionary
0
DICTIONARY
5
1A
330
C
100
AcDbDictionary
0
DICTIONARY
5
17
100
AcDbDictionary
0
ENDSEC
0
EOF
